<svg width="35" height="35" viewBox="0 0 35 35" fill="none" xmlns="http://www.w3.org/2000/svg">
<path d="M20.8518 28.0228C21.3144 28.0228 21.758 27.8391 22.0852 27.5119C22.4123 27.1848 22.596 26.7412 22.596 26.2786V22.79C22.596 22.3274 22.4123 21.8837 22.0852 21.5566C21.758 21.2295 21.3144 21.0457 20.8518 21.0457C20.3892 21.0457 19.9455 21.2295 19.6184 21.5566C19.2913 21.8837 19.1075 22.3274 19.1075 22.79V26.2786C19.1075 26.7412 19.2913 27.1848 19.6184 27.5119C19.9455 27.8391 20.3892 28.0228 20.8518 28.0228ZM13.8747 28.0228C14.3373 28.0228 14.7809 27.8391 15.108 27.5119C15.4352 27.1848 15.6189 26.7412 15.6189 26.2786V22.79C15.6189 22.3274 15.4352 21.8837 15.108 21.5566C14.7809 21.2295 14.3373 21.0457 13.8747 21.0457C13.412 21.0457 12.9684 21.2295 12.6413 21.5566C12.3141 21.8837 12.1304 22.3274 12.1304 22.79V26.2786C12.1304 26.7412 12.3141 27.1848 12.6413 27.5119C12.9684 27.8391 13.412 28.0228 13.8747 28.0228ZM29.5731 7.0915H27.166L24.1484 1.07374C24.0562 0.85231 23.9194 0.652277 23.7463 0.486142C23.5733 0.320007 23.3679 0.19134 23.1429 0.108182C22.9179 0.0250238 22.6782 -0.0108381 22.4388 0.00283741C22.1993 0.0165129 21.9652 0.079432 21.7512 0.187662C21.5371 0.295893 21.3477 0.447108 21.1947 0.631859C21.0417 0.816611 20.9285 1.03093 20.8621 1.26141C20.7957 1.4919 20.7775 1.73361 20.8088 1.97143C20.84 2.20925 20.92 2.43807 21.0436 2.64359L23.2589 7.0915H11.4675L13.6828 2.64359C13.8521 2.23701 13.8613 1.78143 13.7086 1.36833C13.5559 0.955218 13.2526 0.615164 12.8596 0.416437C12.4666 0.217709 12.0129 0.175021 11.5897 0.296942C11.1665 0.418863 10.805 0.696367 10.578 1.07374L7.56037 7.0915H5.15326C3.92039 7.11025 2.73373 7.56376 1.80259 8.37203C0.87145 9.1803 0.255635 10.2914 0.0637587 11.5094C-0.128118 12.7274 0.116271 13.974 0.753822 15.0294C1.39137 16.0848 2.38113 16.8812 3.54853 17.2781L4.83929 30.2904C4.96945 31.5856 5.57772 32.7859 6.54532 33.6567C7.51292 34.5275 8.77037 35.0065 10.0721 34.9999H24.6892C25.9909 35.0065 27.2484 34.5275 28.216 33.6567C29.1836 32.7859 29.7918 31.5856 29.922 30.2904L31.2128 17.2781C32.3827 16.88 33.374 16.0808 34.0111 15.0218C34.6482 13.9629 34.89 12.7127 34.6936 11.4926C34.4972 10.2725 33.8754 9.16123 32.9382 8.35571C32.001 7.55018 30.8089 7.10233 29.5731 7.0915ZM26.416 29.9415C26.3726 30.3733 26.1699 30.7734 25.8473 31.0636C25.5248 31.3539 25.1056 31.5136 24.6717 31.5114H10.0547C9.62076 31.5136 9.20162 31.3539 8.87908 31.0636C8.55655 30.7734 8.35379 30.3733 8.31041 29.9415L7.07197 17.5572H27.6544L26.416 29.9415ZM29.5731 14.0686H5.15326C4.69065 14.0686 4.24699 13.8848 3.91987 13.5577C3.59276 13.2306 3.40899 12.7869 3.40899 12.3243C3.40899 11.8617 3.59276 11.4181 3.91987 11.0909C4.24699 10.7638 4.69065 10.5801 5.15326 10.5801H29.5731C30.0358 10.5801 30.4794 10.7638 30.8065 11.0909C31.1337 11.4181 31.3174 11.8617 31.3174 12.3243C31.3174 12.7869 31.1337 13.2306 30.8065 13.5577C30.4794 13.8848 30.0358 14.0686 29.5731 14.0686Z" fill="black"/>
</svg>
