<svg width="19" height="19" viewBox="0 0 19 19" fill="none" xmlns="http://www.w3.org/2000/svg">
<path opacity="0.42" d="M9.50212 4.62864C6.8063 4.62864 4.63185 6.80358 4.63185 9.5C4.63185 12.1964 6.8063 14.3714 9.50212 14.3714C12.1979 14.3714 14.3724 12.1964 14.3724 9.5C14.3724 6.80358 12.1979 4.62864 9.50212 4.62864ZM9.50212 12.667C7.76001 12.667 6.33581 11.2467 6.33581 9.5C6.33581 7.75326 7.75577 6.33298 9.50212 6.33298C11.2485 6.33298 12.6684 7.75326 12.6684 9.5C12.6684 11.2467 11.2442 12.667 9.50212 12.667ZM15.7076 4.42938C15.7076 5.06108 15.1989 5.5656 14.5716 5.5656C13.94 5.5656 13.4356 5.05684 13.4356 4.42938C13.4356 3.80191 13.9443 3.29315 14.5716 3.29315C15.1989 3.29315 15.7076 3.80191 15.7076 4.42938ZM18.9332 5.58256C18.8612 4.06053 18.5136 2.71232 17.3988 1.60153C16.2883 0.49074 14.9404 0.143088 13.4187 0.0667745C11.8504 -0.0222582 7.14964 -0.0222582 5.58132 0.0667745C4.06386 0.138849 2.71595 0.4865 1.60117 1.59729C0.486392 2.70808 0.143056 4.05629 0.0667596 5.57832C-0.0222532 7.14699 -0.0222532 11.8488 0.0667596 13.4174C0.138818 14.9395 0.486392 16.2877 1.60117 17.3985C2.71595 18.5093 4.05962 18.8569 5.58132 18.9332C7.14964 19.0223 11.8504 19.0223 13.4187 18.9332C14.9404 18.8612 16.2883 18.5135 17.3988 17.3985C18.5094 16.2877 18.8569 14.9395 18.9332 13.4174C19.0223 11.8488 19.0223 7.15123 18.9332 5.58256ZM16.9071 15.1006C16.5765 15.9316 15.9365 16.5717 15.1015 16.9067C13.851 17.4027 10.8839 17.2882 9.50212 17.2882C8.1203 17.2882 5.14897 17.3985 3.90279 16.9067C3.072 16.576 2.43196 15.9358 2.0971 15.1006C1.60117 13.8499 1.71562 10.8821 1.71562 9.5C1.71562 8.11787 1.60541 5.14588 2.0971 3.89942C2.42772 3.06845 3.06776 2.42826 3.90279 2.09333C5.15321 1.59729 8.1203 1.71176 9.50212 1.71176C10.8839 1.71176 13.8553 1.60153 15.1015 2.09333C15.9322 2.42402 16.5723 3.06421 16.9071 3.89942C17.4031 5.15012 17.2886 8.11787 17.2886 9.5C17.2886 10.8821 17.4031 13.8541 16.9071 15.1006Z" fill="black"/>
</svg>
