<svg viewBox="0 0 152 60" fill="none" xmlns="http://www.w3.org/2000/svg">
    <rect fill="#1E1E1E" />
    <rect fill="#F5F5F5" />
    <path
        d="M9.71866 53.892C9.74266 53.892 9.75466 53.91 9.75466 53.946C9.75466 53.982 9.74266 54 9.71866 54C9.61066 54 9.43666 53.994 9.19666 53.982C8.96866 53.97 8.80066 53.964 8.69266 53.964C8.56666 53.964 8.40166 53.97 8.19766 53.982C8.00566 53.994 7.86166 54 7.76566 54C7.74166 54 7.72966 53.982 7.72966 53.946C7.72966 53.91 7.74166 53.892 7.76566 53.892C8.01166 53.892 8.18866 53.871 8.29666 53.829C8.40466 53.781 8.45866 53.703 8.45866 53.595C8.45866 53.511 8.42566 53.394 8.35966 53.244L7.28866 50.949H5.56966L4.75966 52.893C4.67566 53.097 4.63366 53.265 4.63366 53.397C4.63366 53.571 4.70566 53.697 4.84966 53.775C4.99366 53.853 5.21866 53.892 5.52466 53.892C5.55466 53.892 5.56966 53.91 5.56966 53.946C5.56966 53.982 5.55466 54 5.52466 54C5.41666 54 5.26066 53.994 5.05666 53.982C4.82866 53.97 4.63066 53.964 4.46266 53.964C4.31266 53.964 4.13566 53.97 3.93166 53.982C3.75166 53.994 3.60466 54 3.49066 54C3.46066 54 3.44566 53.982 3.44566 53.946C3.44566 53.91 3.46066 53.892 3.49066 53.892C3.65866 53.892 3.79966 53.862 3.91366 53.802C4.03366 53.742 4.14466 53.634 4.24666 53.478C4.35466 53.322 4.46866 53.1 4.58866 52.812L6.46966 48.285C6.48166 48.267 6.49966 48.258 6.52366 48.258C6.55366 48.258 6.57166 48.267 6.57766 48.285L8.66566 52.767C8.80366 53.073 8.92666 53.307 9.03466 53.469C9.14266 53.625 9.24766 53.736 9.34966 53.802C9.45766 53.862 9.58066 53.892 9.71866 53.892ZM5.64166 50.778H7.21666L6.37966 48.996L5.64166 50.778ZM17.1908 53.892C17.2088 53.892 17.2178 53.91 17.2178 53.946C17.2178 53.982 17.2088 54 17.1908 54H16.1468C15.9908 54 15.6998 53.742 15.2738 53.226C14.8478 52.704 14.3318 51.984 13.7258 51.066C13.5458 51.114 13.3628 51.138 13.1768 51.138C13.0748 51.138 12.9458 51.132 12.7898 51.12V53.271C12.7898 53.457 12.8078 53.592 12.8438 53.676C12.8858 53.76 12.9608 53.817 13.0688 53.847C13.1768 53.877 13.3508 53.892 13.5908 53.892C13.6088 53.892 13.6178 53.91 13.6178 53.946C13.6178 53.982 13.6088 54 13.5908 54C13.4108 54 13.2668 53.997 13.1588 53.991L12.5468 53.982L11.9528 53.991C11.8448 53.997 11.6948 54 11.5028 54C11.4908 54 11.4848 53.982 11.4848 53.946C11.4848 53.91 11.4908 53.892 11.5028 53.892C11.7428 53.892 11.9168 53.877 12.0248 53.847C12.1388 53.817 12.2168 53.76 12.2588 53.676C12.3008 53.586 12.3218 53.451 12.3218 53.271V49.104C12.3218 48.924 12.3008 48.792 12.2588 48.708C12.2228 48.624 12.1478 48.567 12.0338 48.537C11.9258 48.501 11.7548 48.483 11.5208 48.483C11.5028 48.483 11.4938 48.465 11.4938 48.429C11.4938 48.393 11.5028 48.375 11.5208 48.375L11.9528 48.384C12.1928 48.396 12.3908 48.402 12.5468 48.402C12.6548 48.402 12.7568 48.399 12.8528 48.393C12.9488 48.387 13.0328 48.381 13.1048 48.375C13.2908 48.357 13.4558 48.348 13.5998 48.348C14.0738 48.348 14.4368 48.447 14.6888 48.645C14.9408 48.843 15.0668 49.119 15.0668 49.473C15.0668 49.761 14.9828 50.034 14.8148 50.292C14.6468 50.544 14.4248 50.745 14.1488 50.895C14.6708 51.663 15.1058 52.26 15.4538 52.686C15.8018 53.112 16.1108 53.421 16.3808 53.613C16.6568 53.799 16.9268 53.892 17.1908 53.892ZM12.7898 50.904C13.0178 50.928 13.1978 50.94 13.3298 50.94C13.7678 50.94 14.0828 50.85 14.2748 50.67C14.4668 50.484 14.5628 50.187 14.5628 49.779C14.5628 49.323 14.4548 48.99 14.2388 48.78C14.0288 48.57 13.7468 48.465 13.3928 48.465C13.2248 48.465 13.1018 48.477 13.0238 48.501C12.9458 48.525 12.8858 48.582 12.8438 48.672C12.8078 48.762 12.7898 48.912 12.7898 49.122V50.904ZM21.3319 54.108C20.7739 54.108 20.2759 53.979 19.8379 53.721C19.4059 53.457 19.0699 53.103 18.8299 52.659C18.5959 52.209 18.4789 51.72 18.4789 51.192C18.4789 50.574 18.6349 50.046 18.9469 49.608C19.2589 49.164 19.6579 48.831 20.1439 48.609C20.6359 48.387 21.1369 48.276 21.6469 48.276C22.2169 48.276 22.7179 48.411 23.1499 48.681C23.5819 48.945 23.9119 49.296 24.1399 49.734C24.3739 50.172 24.4909 50.637 24.4909 51.129C24.4909 51.675 24.3469 52.176 24.0589 52.632C23.7709 53.088 23.3839 53.448 22.8979 53.712C22.4179 53.976 21.8959 54.108 21.3319 54.108ZM21.6559 53.928C22.0819 53.928 22.4659 53.829 22.8079 53.631C23.1499 53.433 23.4199 53.142 23.6179 52.758C23.8159 52.374 23.9149 51.915 23.9149 51.381C23.9149 50.817 23.8039 50.316 23.5819 49.878C23.3659 49.434 23.0569 49.089 22.6549 48.843C22.2589 48.597 21.7969 48.474 21.2689 48.474C20.5729 48.474 20.0299 48.69 19.6399 49.122C19.2499 49.554 19.0549 50.142 19.0549 50.886C19.0549 51.444 19.1629 51.957 19.3789 52.425C19.6009 52.887 19.9099 53.253 20.3059 53.523C20.7019 53.793 21.1519 53.928 21.6559 53.928ZM33.5415 53.892C33.5595 53.892 33.5685 53.91 33.5685 53.946C33.5685 53.982 33.5595 54 33.5415 54C33.3555 54 33.2085 53.997 33.1005 53.991L32.4975 53.982L31.9395 53.991C31.8495 53.997 31.7235 54 31.5615 54C31.5495 54 31.5435 53.982 31.5435 53.946C31.5435 53.91 31.5495 53.892 31.5615 53.892C31.7715 53.892 31.9245 53.877 32.0205 53.847C32.1225 53.811 32.1885 53.751 32.2185 53.667C32.2545 53.583 32.2665 53.451 32.2545 53.271L32.1015 49.086L29.9955 53.937C29.9835 53.961 29.9595 53.973 29.9235 53.973C29.8935 53.973 29.8665 53.961 29.8425 53.937L27.6465 49.122L27.6375 49.104L27.5655 53.064C27.5595 53.376 27.6105 53.592 27.7185 53.712C27.8265 53.832 28.0275 53.892 28.3215 53.892C28.3335 53.892 28.3395 53.91 28.3395 53.946C28.3395 53.982 28.3335 54 28.3215 54C28.1535 54 28.0245 53.997 27.9345 53.991L27.4485 53.982L27.0075 53.991C26.9295 53.997 26.8125 54 26.6565 54C26.6445 54 26.6385 53.982 26.6385 53.946C26.6385 53.91 26.6445 53.892 26.6565 53.892C26.9085 53.892 27.0855 53.832 27.1875 53.712C27.2955 53.586 27.3525 53.37 27.3585 53.064L27.4485 48.798C27.2625 48.588 27.0195 48.483 26.7195 48.483C26.7075 48.483 26.7015 48.465 26.7015 48.429C26.7015 48.393 26.7075 48.375 26.7195 48.375L27.0255 48.384C27.0855 48.39 27.1635 48.393 27.2595 48.393C27.3555 48.393 27.4365 48.39 27.5025 48.384C27.5685 48.378 27.6195 48.375 27.6555 48.375C27.7395 48.375 27.8055 48.405 27.8535 48.465C27.9015 48.519 27.9735 48.645 28.0695 48.843L30.0945 53.217L32.1105 48.6C32.1405 48.534 32.1795 48.48 32.2275 48.438C32.2815 48.396 32.3325 48.375 32.3805 48.375C32.4045 48.375 32.4435 48.378 32.4975 48.384C32.5515 48.39 32.6265 48.393 32.7225 48.393L33.1275 48.384C33.1875 48.378 33.2805 48.375 33.4065 48.375C33.4185 48.375 33.4245 48.393 33.4245 48.429C33.4245 48.465 33.4185 48.483 33.4065 48.483C33.0945 48.483 32.8725 48.525 32.7405 48.609C32.6145 48.687 32.5545 48.846 32.5605 49.086L32.7315 53.271C32.7375 53.457 32.7585 53.592 32.7945 53.676C32.8365 53.76 32.9115 53.817 33.0195 53.847C33.1335 53.877 33.3075 53.892 33.5415 53.892ZM41.3452 53.892C41.3692 53.892 41.3812 53.91 41.3812 53.946C41.3812 53.982 41.3692 54 41.3452 54C41.2372 54 41.0632 53.994 40.8232 53.982C40.5952 53.97 40.4272 53.964 40.3192 53.964C40.1932 53.964 40.0282 53.97 39.8242 53.982C39.6322 53.994 39.4882 54 39.3922 54C39.3682 54 39.3562 53.982 39.3562 53.946C39.3562 53.91 39.3682 53.892 39.3922 53.892C39.6382 53.892 39.8152 53.871 39.9232 53.829C40.0312 53.781 40.0852 53.703 40.0852 53.595C40.0852 53.511 40.0522 53.394 39.9862 53.244L38.9152 50.949H37.1962L36.3862 52.893C36.3022 53.097 36.2602 53.265 36.2602 53.397C36.2602 53.571 36.3322 53.697 36.4762 53.775C36.6202 53.853 36.8452 53.892 37.1512 53.892C37.1812 53.892 37.1962 53.91 37.1962 53.946C37.1962 53.982 37.1812 54 37.1512 54C37.0432 54 36.8872 53.994 36.6832 53.982C36.4552 53.97 36.2572 53.964 36.0892 53.964C35.9392 53.964 35.7622 53.97 35.5582 53.982C35.3782 53.994 35.2312 54 35.1172 54C35.0872 54 35.0722 53.982 35.0722 53.946C35.0722 53.91 35.0872 53.892 35.1172 53.892C35.2852 53.892 35.4262 53.862 35.5402 53.802C35.6602 53.742 35.7712 53.634 35.8732 53.478C35.9812 53.322 36.0952 53.1 36.2152 52.812L38.0962 48.285C38.1082 48.267 38.1262 48.258 38.1502 48.258C38.1802 48.258 38.1982 48.267 38.2042 48.285L40.2922 52.767C40.4302 53.073 40.5532 53.307 40.6612 53.469C40.7692 53.625 40.8742 53.736 40.9762 53.802C41.0842 53.862 41.2072 53.892 41.3452 53.892ZM37.2682 50.778H38.8432L38.0062 48.996L37.2682 50.778ZM52.6728 53.892C52.6908 53.892 52.6998 53.91 52.6998 53.946C52.6998 53.982 52.6908 54 52.6728 54C52.4868 54 52.3428 53.997 52.2408 53.991L51.6378 53.982L51.0168 53.991C50.9148 53.997 50.7738 54 50.5938 54C50.5758 54 50.5668 53.982 50.5668 53.946C50.5668 53.91 50.5758 53.892 50.5938 53.892C50.8338 53.892 51.0078 53.877 51.1158 53.847C51.2238 53.817 51.2958 53.76 51.3318 53.676C51.3738 53.592 51.3948 53.457 51.3948 53.271V51.156H47.8038V53.271C47.8038 53.457 47.8218 53.592 47.8578 53.676C47.8998 53.76 47.9748 53.817 48.0828 53.847C48.1908 53.877 48.3648 53.892 48.6048 53.892C48.6168 53.892 48.6228 53.91 48.6228 53.946C48.6228 53.982 48.6168 54 48.6048 54C48.4248 54 48.2808 53.997 48.1728 53.991L47.5608 53.982L46.9668 53.991C46.8588 53.997 46.7088 54 46.5168 54C46.5048 54 46.4988 53.982 46.4988 53.946C46.4988 53.91 46.5048 53.892 46.5168 53.892C46.7508 53.892 46.9218 53.877 47.0298 53.847C47.1438 53.817 47.2218 53.76 47.2638 53.676C47.3058 53.586 47.3268 53.451 47.3268 53.271V49.104C47.3268 48.924 47.3058 48.792 47.2638 48.708C47.2278 48.624 47.1528 48.567 47.0388 48.537C46.9308 48.501 46.7598 48.483 46.5258 48.483C46.5138 48.483 46.5078 48.465 46.5078 48.429C46.5078 48.393 46.5138 48.375 46.5258 48.375L46.9668 48.384C47.2188 48.396 47.4168 48.402 47.5608 48.402C47.7228 48.402 47.9298 48.396 48.1818 48.384L48.6048 48.375C48.6168 48.375 48.6228 48.393 48.6228 48.429C48.6228 48.465 48.6168 48.483 48.6048 48.483C48.3708 48.483 48.1968 48.501 48.0828 48.537C47.9748 48.573 47.8998 48.636 47.8578 48.726C47.8218 48.81 47.8038 48.942 47.8038 49.122V50.985H51.3948V49.122C51.3948 48.942 51.3738 48.81 51.3318 48.726C51.2958 48.636 51.2208 48.573 51.1068 48.537C50.9988 48.501 50.8278 48.483 50.5938 48.483C50.5758 48.483 50.5668 48.465 50.5668 48.429C50.5668 48.393 50.5758 48.375 50.5938 48.375L51.0168 48.384C51.2688 48.396 51.4758 48.402 51.6378 48.402C51.7878 48.402 51.9888 48.396 52.2408 48.384L52.6728 48.375C52.6908 48.375 52.6998 48.393 52.6998 48.429C52.6998 48.465 52.6908 48.483 52.6728 48.483C52.4388 48.483 52.2648 48.501 52.1508 48.537C52.0428 48.567 51.9678 48.624 51.9258 48.708C51.8838 48.792 51.8628 48.924 51.8628 49.104V53.271C51.8628 53.451 51.8838 53.586 51.9258 53.676C51.9678 53.76 52.0428 53.817 52.1508 53.847C52.2648 53.877 52.4388 53.892 52.6728 53.892ZM57.6571 54.108C57.0991 54.108 56.6011 53.979 56.1631 53.721C55.7311 53.457 55.3951 53.103 55.1551 52.659C54.9211 52.209 54.8041 51.72 54.8041 51.192C54.8041 50.574 54.9601 50.046 55.2721 49.608C55.5841 49.164 55.9831 48.831 56.4691 48.609C56.9611 48.387 57.4621 48.276 57.9721 48.276C58.5421 48.276 59.0431 48.411 59.4751 48.681C59.9071 48.945 60.2371 49.296 60.4651 49.734C60.6991 50.172 60.8161 50.637 60.8161 51.129C60.8161 51.675 60.6721 52.176 60.3841 52.632C60.0961 53.088 59.7091 53.448 59.2231 53.712C58.7431 53.976 58.2211 54.108 57.6571 54.108ZM57.9811 53.928C58.4071 53.928 58.7911 53.829 59.1331 53.631C59.4751 53.433 59.7451 53.142 59.9431 52.758C60.1411 52.374 60.2401 51.915 60.2401 51.381C60.2401 50.817 60.1291 50.316 59.9071 49.878C59.6911 49.434 59.3821 49.089 58.9801 48.843C58.5841 48.597 58.1221 48.474 57.5941 48.474C56.8981 48.474 56.3551 48.69 55.9651 49.122C55.5751 49.554 55.3801 50.142 55.3801 50.886C55.3801 51.444 55.4881 51.957 55.7041 52.425C55.9261 52.887 56.2351 53.253 56.6311 53.523C57.0271 53.793 57.4771 53.928 57.9811 53.928ZM69.8667 53.892C69.8847 53.892 69.8937 53.91 69.8937 53.946C69.8937 53.982 69.8847 54 69.8667 54C69.6807 54 69.5337 53.997 69.4257 53.991L68.8227 53.982L68.2647 53.991C68.1747 53.997 68.0487 54 67.8867 54C67.8747 54 67.8687 53.982 67.8687 53.946C67.8687 53.91 67.8747 53.892 67.8867 53.892C68.0967 53.892 68.2497 53.877 68.3457 53.847C68.4477 53.811 68.5137 53.751 68.5437 53.667C68.5797 53.583 68.5917 53.451 68.5797 53.271L68.4267 49.086L66.3207 53.937C66.3087 53.961 66.2847 53.973 66.2487 53.973C66.2187 53.973 66.1917 53.961 66.1677 53.937L63.9717 49.122L63.9627 49.104L63.8907 53.064C63.8847 53.376 63.9357 53.592 64.0437 53.712C64.1517 53.832 64.3527 53.892 64.6467 53.892C64.6587 53.892 64.6647 53.91 64.6647 53.946C64.6647 53.982 64.6587 54 64.6467 54C64.4787 54 64.3497 53.997 64.2597 53.991L63.7737 53.982L63.3327 53.991C63.2547 53.997 63.1377 54 62.9817 54C62.9697 54 62.9637 53.982 62.9637 53.946C62.9637 53.91 62.9697 53.892 62.9817 53.892C63.2337 53.892 63.4107 53.832 63.5127 53.712C63.6207 53.586 63.6777 53.37 63.6837 53.064L63.7737 48.798C63.5877 48.588 63.3447 48.483 63.0447 48.483C63.0327 48.483 63.0267 48.465 63.0267 48.429C63.0267 48.393 63.0327 48.375 63.0447 48.375L63.3507 48.384C63.4107 48.39 63.4887 48.393 63.5847 48.393C63.6807 48.393 63.7617 48.39 63.8277 48.384C63.8937 48.378 63.9447 48.375 63.9807 48.375C64.0647 48.375 64.1307 48.405 64.1787 48.465C64.2267 48.519 64.2987 48.645 64.3947 48.843L66.4197 53.217L68.4357 48.6C68.4657 48.534 68.5047 48.48 68.5527 48.438C68.6067 48.396 68.6577 48.375 68.7057 48.375C68.7297 48.375 68.7687 48.378 68.8227 48.384C68.8767 48.39 68.9517 48.393 69.0477 48.393L69.4527 48.384C69.5127 48.378 69.6057 48.375 69.7317 48.375C69.7437 48.375 69.7497 48.393 69.7497 48.429C69.7497 48.465 69.7437 48.483 69.7317 48.483C69.4197 48.483 69.1977 48.525 69.0657 48.609C68.9397 48.687 68.8797 48.846 68.8857 49.086L69.0567 53.271C69.0627 53.457 69.0837 53.592 69.1197 53.676C69.1617 53.76 69.2367 53.817 69.3447 53.847C69.4587 53.877 69.6327 53.892 69.8667 53.892ZM75.6544 52.686C75.6544 52.668 75.6724 52.662 75.7084 52.668C75.7444 52.668 75.7624 52.677 75.7624 52.695C75.7084 53.073 75.6814 53.463 75.6814 53.865C75.6814 53.913 75.6694 53.949 75.6454 53.973C75.6274 53.991 75.5914 54 75.5374 54H71.8204C71.8084 54 71.8024 53.982 71.8024 53.946C71.8024 53.91 71.8084 53.892 71.8204 53.892C72.0544 53.892 72.2254 53.877 72.3334 53.847C72.4474 53.817 72.5224 53.76 72.5584 53.676C72.6004 53.586 72.6214 53.451 72.6214 53.271V49.104C72.6214 48.924 72.6004 48.792 72.5584 48.708C72.5224 48.624 72.4474 48.567 72.3334 48.537C72.2254 48.501 72.0544 48.483 71.8204 48.483C71.8084 48.483 71.8024 48.465 71.8024 48.429C71.8024 48.393 71.8084 48.375 71.8204 48.375H75.3844C75.4384 48.375 75.4654 48.402 75.4654 48.456L75.4834 49.545C75.4834 49.563 75.4654 49.572 75.4294 49.572C75.3994 49.572 75.3844 49.563 75.3844 49.545C75.3844 49.239 75.3034 48.996 75.1414 48.816C74.9794 48.636 74.7664 48.546 74.5024 48.546H73.8814C73.6534 48.546 73.4854 48.561 73.3774 48.591C73.2694 48.621 73.1944 48.678 73.1524 48.762C73.1164 48.846 73.0984 48.978 73.0984 49.158V50.985H74.2864C74.5624 50.985 74.7544 50.94 74.8624 50.85C74.9704 50.754 75.0244 50.592 75.0244 50.364C75.0244 50.352 75.0424 50.346 75.0784 50.346C75.1144 50.346 75.1324 50.352 75.1324 50.364L75.1234 51.075C75.1234 51.249 75.1264 51.378 75.1324 51.462L75.1414 51.885C75.1414 51.897 75.1234 51.903 75.0874 51.903C75.0514 51.903 75.0334 51.897 75.0334 51.885C75.0334 51.615 74.9764 51.426 74.8624 51.318C74.7484 51.21 74.5474 51.156 74.2594 51.156H73.0984V53.235C73.0984 53.409 73.1164 53.538 73.1524 53.622C73.1944 53.7 73.2664 53.754 73.3684 53.784C73.4764 53.814 73.6474 53.829 73.8814 53.829H74.7094C74.9494 53.829 75.1534 53.724 75.3214 53.514C75.4954 53.304 75.6064 53.028 75.6544 52.686ZM84.7496 48.276C85.0436 48.276 85.3376 48.306 85.6316 48.366C85.9316 48.426 86.1716 48.507 86.3516 48.609C86.3996 48.639 86.4296 48.669 86.4416 48.699C86.4596 48.723 86.4716 48.765 86.4776 48.825L86.5766 49.77C86.5766 49.788 86.5616 49.8 86.5316 49.806C86.5016 49.806 86.4836 49.797 86.4776 49.779C86.2616 48.903 85.5686 48.465 84.3986 48.465C83.9306 48.465 83.5166 48.567 83.1566 48.771C82.8026 48.969 82.5266 49.251 82.3286 49.617C82.1306 49.983 82.0316 50.406 82.0316 50.886C82.0316 51.45 82.1546 51.972 82.4006 52.452C82.6466 52.926 82.9736 53.304 83.3816 53.586C83.7896 53.862 84.2306 54 84.7046 54C85.1486 54 85.5296 53.883 85.8476 53.649C86.1716 53.415 86.4086 53.058 86.5586 52.578C86.5586 52.56 86.5706 52.551 86.5946 52.551C86.6126 52.551 86.6276 52.554 86.6396 52.56C86.6576 52.566 86.6666 52.575 86.6666 52.587L86.5406 53.55C86.5286 53.622 86.5136 53.67 86.4956 53.694C86.4836 53.712 86.4506 53.733 86.3966 53.757C85.8626 53.991 85.2896 54.108 84.6776 54.108C83.9576 54.108 83.3576 53.964 82.8776 53.676C82.3976 53.382 82.0436 53.01 81.8156 52.56C81.5876 52.104 81.4736 51.627 81.4736 51.129C81.4736 50.583 81.6266 50.094 81.9326 49.662C82.2386 49.224 82.6436 48.885 83.1476 48.645C83.6516 48.399 84.1856 48.276 84.7496 48.276ZM91.6971 54.108C91.1391 54.108 90.6411 53.979 90.2031 53.721C89.7711 53.457 89.4351 53.103 89.1951 52.659C88.9611 52.209 88.8441 51.72 88.8441 51.192C88.8441 50.574 89.0001 50.046 89.3121 49.608C89.6241 49.164 90.0231 48.831 90.5091 48.609C91.0011 48.387 91.5021 48.276 92.0121 48.276C92.5821 48.276 93.0831 48.411 93.5151 48.681C93.9471 48.945 94.2771 49.296 94.5051 49.734C94.7391 50.172 94.8561 50.637 94.8561 51.129C94.8561 51.675 94.7121 52.176 94.4241 52.632C94.1361 53.088 93.7491 53.448 93.2631 53.712C92.7831 53.976 92.2611 54.108 91.6971 54.108ZM92.0211 53.928C92.4471 53.928 92.8311 53.829 93.1731 53.631C93.5151 53.433 93.7851 53.142 93.9831 52.758C94.1811 52.374 94.2801 51.915 94.2801 51.381C94.2801 50.817 94.1691 50.316 93.9471 49.878C93.7311 49.434 93.4221 49.089 93.0201 48.843C92.6241 48.597 92.1621 48.474 91.6341 48.474C90.9381 48.474 90.3951 48.69 90.0051 49.122C89.6151 49.554 89.4201 50.142 89.4201 50.886C89.4201 51.444 89.5281 51.957 89.7441 52.425C89.9661 52.887 90.2751 53.253 90.6711 53.523C91.0671 53.793 91.5171 53.928 92.0211 53.928ZM98.2458 53.235C98.2458 53.409 98.2638 53.538 98.2998 53.622C98.3418 53.7 98.4138 53.754 98.5158 53.784C98.6238 53.814 98.7918 53.829 99.0198 53.829H100.172C100.766 53.829 101.117 53.448 101.225 52.686C101.225 52.668 101.24 52.662 101.27 52.668C101.306 52.668 101.324 52.677 101.324 52.695C101.27 53.169 101.243 53.559 101.243 53.865C101.243 53.913 101.234 53.949 101.216 53.973C101.198 53.991 101.162 54 101.108 54H96.9678C96.9558 54 96.9498 53.982 96.9498 53.946C96.9498 53.91 96.9558 53.892 96.9678 53.892C97.2018 53.892 97.3728 53.877 97.4808 53.847C97.5948 53.817 97.6698 53.76 97.7058 53.676C97.7478 53.586 97.7688 53.451 97.7688 53.271V49.104C97.7688 48.924 97.7478 48.792 97.7058 48.708C97.6698 48.624 97.5948 48.567 97.4808 48.537C97.3728 48.501 97.2018 48.483 96.9678 48.483C96.9558 48.483 96.9498 48.465 96.9498 48.429C96.9498 48.393 96.9558 48.375 96.9678 48.375L97.4088 48.384C97.6608 48.396 97.8588 48.402 98.0028 48.402C98.1648 48.402 98.3718 48.396 98.6238 48.384L99.0468 48.375C99.0588 48.375 99.0648 48.393 99.0648 48.429C99.0648 48.465 99.0588 48.483 99.0468 48.483C98.8128 48.483 98.6388 48.501 98.5248 48.537C98.4168 48.567 98.3418 48.627 98.2998 48.717C98.2638 48.801 98.2458 48.933 98.2458 49.113V53.235ZM104.368 53.235C104.368 53.409 104.386 53.538 104.422 53.622C104.464 53.7 104.536 53.754 104.638 53.784C104.746 53.814 104.914 53.829 105.142 53.829H106.294C106.888 53.829 107.239 53.448 107.347 52.686C107.347 52.668 107.362 52.662 107.392 52.668C107.428 52.668 107.446 52.677 107.446 52.695C107.392 53.169 107.365 53.559 107.365 53.865C107.365 53.913 107.356 53.949 107.338 53.973C107.32 53.991 107.284 54 107.23 54H103.09C103.078 54 103.072 53.982 103.072 53.946C103.072 53.91 103.078 53.892 103.09 53.892C103.324 53.892 103.495 53.877 103.603 53.847C103.717 53.817 103.792 53.76 103.828 53.676C103.87 53.586 103.891 53.451 103.891 53.271V49.104C103.891 48.924 103.87 48.792 103.828 48.708C103.792 48.624 103.717 48.567 103.603 48.537C103.495 48.501 103.324 48.483 103.09 48.483C103.078 48.483 103.072 48.465 103.072 48.429C103.072 48.393 103.078 48.375 103.09 48.375L103.531 48.384C103.783 48.396 103.981 48.402 104.125 48.402C104.287 48.402 104.494 48.396 104.746 48.384L105.169 48.375C105.181 48.375 105.187 48.393 105.187 48.429C105.187 48.465 105.181 48.483 105.169 48.483C104.935 48.483 104.761 48.501 104.647 48.537C104.539 48.567 104.464 48.627 104.422 48.717C104.386 48.801 104.368 48.933 104.368 49.113V53.235ZM113.119 52.686C113.119 52.668 113.137 52.662 113.173 52.668C113.209 52.668 113.227 52.677 113.227 52.695C113.173 53.073 113.146 53.463 113.146 53.865C113.146 53.913 113.134 53.949 113.11 53.973C113.092 53.991 113.056 54 113.002 54H109.285C109.273 54 109.267 53.982 109.267 53.946C109.267 53.91 109.273 53.892 109.285 53.892C109.519 53.892 109.69 53.877 109.798 53.847C109.912 53.817 109.987 53.76 110.023 53.676C110.065 53.586 110.086 53.451 110.086 53.271V49.104C110.086 48.924 110.065 48.792 110.023 48.708C109.987 48.624 109.912 48.567 109.798 48.537C109.69 48.501 109.519 48.483 109.285 48.483C109.273 48.483 109.267 48.465 109.267 48.429C109.267 48.393 109.273 48.375 109.285 48.375H112.849C112.903 48.375 112.93 48.402 112.93 48.456L112.948 49.545C112.948 49.563 112.93 49.572 112.894 49.572C112.864 49.572 112.849 49.563 112.849 49.545C112.849 49.239 112.768 48.996 112.606 48.816C112.444 48.636 112.231 48.546 111.967 48.546H111.346C111.118 48.546 110.95 48.561 110.842 48.591C110.734 48.621 110.659 48.678 110.617 48.762C110.581 48.846 110.563 48.978 110.563 49.158V50.985H111.751C112.027 50.985 112.219 50.94 112.327 50.85C112.435 50.754 112.489 50.592 112.489 50.364C112.489 50.352 112.507 50.346 112.543 50.346C112.579 50.346 112.597 50.352 112.597 50.364L112.588 51.075C112.588 51.249 112.591 51.378 112.597 51.462L112.606 51.885C112.606 51.897 112.588 51.903 112.552 51.903C112.516 51.903 112.498 51.897 112.498 51.885C112.498 51.615 112.441 51.426 112.327 51.318C112.213 51.21 112.012 51.156 111.724 51.156H110.563V53.235C110.563 53.409 110.581 53.538 110.617 53.622C110.659 53.7 110.731 53.754 110.833 53.784C110.941 53.814 111.112 53.829 111.346 53.829H112.174C112.414 53.829 112.618 53.724 112.786 53.514C112.96 53.304 113.071 53.028 113.119 52.686ZM118.754 48.276C119.048 48.276 119.342 48.306 119.636 48.366C119.936 48.426 120.176 48.507 120.356 48.609C120.404 48.639 120.434 48.669 120.446 48.699C120.464 48.723 120.476 48.765 120.482 48.825L120.581 49.77C120.581 49.788 120.566 49.8 120.536 49.806C120.506 49.806 120.488 49.797 120.482 49.779C120.266 48.903 119.573 48.465 118.403 48.465C117.935 48.465 117.521 48.567 117.161 48.771C116.807 48.969 116.531 49.251 116.333 49.617C116.135 49.983 116.036 50.406 116.036 50.886C116.036 51.45 116.159 51.972 116.405 52.452C116.651 52.926 116.978 53.304 117.386 53.586C117.794 53.862 118.235 54 118.709 54C119.153 54 119.534 53.883 119.852 53.649C120.176 53.415 120.413 53.058 120.563 52.578C120.563 52.56 120.575 52.551 120.599 52.551C120.617 52.551 120.632 52.554 120.644 52.56C120.662 52.566 120.671 52.575 120.671 52.587L120.545 53.55C120.533 53.622 120.518 53.67 120.5 53.694C120.488 53.712 120.455 53.733 120.401 53.757C119.867 53.991 119.294 54.108 118.682 54.108C117.962 54.108 117.362 53.964 116.882 53.676C116.402 53.382 116.048 53.01 115.82 52.56C115.592 52.104 115.478 51.627 115.478 51.129C115.478 50.583 115.631 50.094 115.937 49.662C116.243 49.224 116.648 48.885 117.152 48.645C117.656 48.399 118.19 48.276 118.754 48.276ZM124.028 48.528C123.65 48.528 123.374 48.618 123.2 48.798C123.026 48.978 122.909 49.299 122.849 49.761C122.849 49.773 122.831 49.779 122.795 49.779C122.759 49.779 122.741 49.773 122.741 49.761C122.765 49.599 122.792 49.341 122.822 48.987C122.852 48.627 122.867 48.357 122.867 48.177C122.867 48.147 122.885 48.132 122.921 48.132C122.957 48.132 122.975 48.147 122.975 48.177C122.975 48.309 123.134 48.375 123.452 48.375C123.968 48.393 124.571 48.402 125.261 48.402C125.615 48.402 125.99 48.396 126.386 48.384L126.998 48.375C127.214 48.375 127.373 48.36 127.475 48.33C127.577 48.3 127.643 48.24 127.673 48.15C127.679 48.126 127.697 48.114 127.727 48.114C127.757 48.114 127.772 48.126 127.772 48.15C127.754 48.318 127.736 48.576 127.718 48.924C127.7 49.266 127.691 49.545 127.691 49.761C127.691 49.773 127.673 49.779 127.637 49.779C127.601 49.779 127.583 49.773 127.583 49.761C127.583 49.443 127.55 49.197 127.484 49.023C127.418 48.849 127.307 48.723 127.151 48.645C126.995 48.567 126.776 48.528 126.494 48.528C126.182 48.528 125.963 48.54 125.837 48.564C125.711 48.582 125.624 48.63 125.576 48.708C125.534 48.786 125.513 48.924 125.513 49.122V53.271C125.513 53.457 125.534 53.592 125.576 53.676C125.618 53.76 125.702 53.817 125.828 53.847C125.954 53.877 126.152 53.892 126.422 53.892C126.434 53.892 126.44 53.91 126.44 53.946C126.44 53.982 126.434 54 126.422 54C126.224 54 126.068 53.997 125.954 53.991L125.261 53.982L124.604 53.991C124.484 53.997 124.319 54 124.109 54C124.097 54 124.091 53.982 124.091 53.946C124.091 53.91 124.097 53.892 124.109 53.892C124.379 53.892 124.577 53.877 124.703 53.847C124.829 53.817 124.913 53.76 124.955 53.676C125.003 53.586 125.027 53.451 125.027 53.271V49.104C125.027 48.906 125.003 48.771 124.955 48.699C124.907 48.621 124.82 48.573 124.694 48.555C124.574 48.537 124.352 48.528 124.028 48.528ZM131.173 53.271C131.173 53.457 131.191 53.592 131.227 53.676C131.269 53.76 131.344 53.817 131.452 53.847C131.56 53.877 131.734 53.892 131.974 53.892C131.986 53.892 131.992 53.91 131.992 53.946C131.992 53.982 131.986 54 131.974 54C131.794 54 131.653 53.997 131.551 53.991L130.921 53.982L130.318 53.991C130.21 53.997 130.063 54 129.877 54C129.859 54 129.85 53.982 129.85 53.946C129.85 53.91 129.859 53.892 129.877 53.892C130.111 53.892 130.282 53.877 130.39 53.847C130.504 53.817 130.582 53.76 130.624 53.676C130.666 53.586 130.687 53.451 130.687 53.271V49.104C130.687 48.924 130.666 48.792 130.624 48.708C130.582 48.624 130.504 48.567 130.39 48.537C130.282 48.501 130.111 48.483 129.877 48.483C129.859 48.483 129.85 48.465 129.85 48.429C129.85 48.393 129.859 48.375 129.877 48.375L130.318 48.384C130.57 48.396 130.771 48.402 130.921 48.402C131.089 48.402 131.299 48.396 131.551 48.384L131.974 48.375C131.986 48.375 131.992 48.393 131.992 48.429C131.992 48.465 131.986 48.483 131.974 48.483C131.74 48.483 131.566 48.501 131.452 48.537C131.344 48.573 131.269 48.636 131.227 48.726C131.191 48.81 131.173 48.942 131.173 49.122V53.271ZM137.059 54.108C136.501 54.108 136.003 53.979 135.565 53.721C135.133 53.457 134.797 53.103 134.557 52.659C134.323 52.209 134.206 51.72 134.206 51.192C134.206 50.574 134.362 50.046 134.674 49.608C134.986 49.164 135.385 48.831 135.871 48.609C136.363 48.387 136.864 48.276 137.374 48.276C137.944 48.276 138.445 48.411 138.877 48.681C139.309 48.945 139.639 49.296 139.867 49.734C140.101 50.172 140.218 50.637 140.218 51.129C140.218 51.675 140.074 52.176 139.786 52.632C139.498 53.088 139.111 53.448 138.625 53.712C138.145 53.976 137.623 54.108 137.059 54.108ZM137.383 53.928C137.809 53.928 138.193 53.829 138.535 53.631C138.877 53.433 139.147 53.142 139.345 52.758C139.543 52.374 139.642 51.915 139.642 51.381C139.642 50.817 139.531 50.316 139.309 49.878C139.093 49.434 138.784 49.089 138.382 48.843C137.986 48.597 137.524 48.474 136.996 48.474C136.3 48.474 135.757 48.69 135.367 49.122C134.977 49.554 134.782 50.142 134.782 50.886C134.782 51.444 134.89 51.957 135.106 52.425C135.328 52.887 135.637 53.253 136.033 53.523C136.429 53.793 136.879 53.928 137.383 53.928ZM148.297 48.375C148.315 48.375 148.324 48.393 148.324 48.429C148.324 48.465 148.315 48.483 148.297 48.483C148.039 48.483 147.856 48.546 147.748 48.672C147.646 48.798 147.595 49.014 147.595 49.32V54.099C147.595 54.111 147.58 54.12 147.55 54.126C147.52 54.132 147.499 54.129 147.487 54.117L143.419 49.113L143.266 48.942V53.064C143.266 53.37 143.317 53.586 143.419 53.712C143.521 53.832 143.698 53.892 143.95 53.892C143.968 53.892 143.977 53.91 143.977 53.946C143.977 53.982 143.968 54 143.95 54C143.806 54 143.695 53.997 143.617 53.991L143.185 53.982L142.744 53.991C142.666 53.997 142.549 54 142.393 54C142.381 54 142.375 53.982 142.375 53.946C142.375 53.91 142.381 53.892 142.393 53.892C142.651 53.892 142.828 53.832 142.924 53.712C143.02 53.592 143.068 53.376 143.068 53.064V48.753C142.858 48.573 142.642 48.483 142.42 48.483C142.402 48.483 142.393 48.465 142.393 48.429C142.393 48.393 142.402 48.375 142.42 48.375L142.744 48.384C142.81 48.39 142.903 48.393 143.023 48.393C143.125 48.393 143.209 48.39 143.275 48.384C143.341 48.378 143.392 48.375 143.428 48.375C143.47 48.375 143.503 48.387 143.527 48.411C143.557 48.429 143.59 48.471 143.626 48.537C143.692 48.645 143.764 48.747 143.842 48.843L147.397 53.262V49.32C147.397 49.014 147.349 48.798 147.253 48.672C147.157 48.546 146.983 48.483 146.731 48.483C146.719 48.483 146.713 48.465 146.713 48.429C146.713 48.393 146.719 48.375 146.731 48.375L147.073 48.384C147.253 48.396 147.397 48.402 147.505 48.402C147.607 48.402 147.754 48.396 147.946 48.384L148.297 48.375Z"
        fill="black" />
    <path
        d="M6.10078 14.68C6.10078 15.72 6.35411 16.6267 6.86078 17.4C7.36745 18.1733 7.98078 18.8267 8.70078 19.36C9.42078 19.8667 10.4341 20.52 11.7408 21.32C13.1274 22.1467 14.2074 22.84 14.9808 23.4C15.7541 23.96 16.4074 24.68 16.9408 25.56C17.5008 26.4133 17.7808 27.44 17.7808 28.64C17.7808 29.92 17.4608 31.08 16.8208 32.12C16.1808 33.16 15.2341 33.9867 13.9808 34.6C12.7541 35.1867 11.2741 35.48 9.54078 35.48C7.48745 35.48 5.60745 35.0133 3.90078 34.08C3.76745 34 3.67411 33.9067 3.62078 33.8C3.59411 33.6933 3.56745 33.5333 3.54078 33.32L3.02078 27.88C2.99411 27.7733 3.04745 27.7067 3.18078 27.68C3.34078 27.6533 3.43411 27.6933 3.46078 27.8C3.88745 29.72 4.67411 31.3733 5.82078 32.76C6.99412 34.1467 8.54078 34.84 10.4608 34.84C11.7941 34.84 12.9141 34.48 13.8208 33.76C14.7541 33.0133 15.2208 31.84 15.2208 30.24C15.2208 29.04 14.9541 28 14.4208 27.12C13.8874 26.24 13.2341 25.52 12.4608 24.96C11.7141 24.3733 10.6874 23.6933 9.38078 22.92C8.10078 22.1467 7.08745 21.48 6.34078 20.92C5.62078 20.36 5.00745 19.6533 4.50078 18.8C3.99411 17.9467 3.74078 16.9467 3.74078 15.8C3.74078 14.4667 4.08745 13.3333 4.78078 12.4C5.50078 11.44 6.42078 10.7333 7.54078 10.28C8.68745 9.8 9.90078 9.56 11.1808 9.56C12.7541 9.56 14.3141 9.88 15.8608 10.52C16.2608 10.6533 16.4608 10.88 16.4608 11.2L16.7408 15.8C16.7408 15.9067 16.6741 15.96 16.5408 15.96C16.4074 15.96 16.3274 15.9067 16.3008 15.8C16.0874 14.4133 15.5141 13.1333 14.5808 11.96C13.6474 10.76 12.3008 10.16 10.5408 10.16C9.04745 10.16 7.92745 10.6 7.18078 11.48C6.46078 12.3333 6.10078 13.4 6.10078 14.68ZM47.9092 34.52C48.0159 34.52 48.0692 34.6 48.0692 34.76C48.0692 34.92 48.0159 35 47.9092 35C47.4026 35 46.6159 34.9733 45.5492 34.92C44.4826 34.8667 43.7092 34.84 43.2292 34.84C42.6426 34.84 41.8959 34.8667 40.9892 34.92C40.1359 34.9733 39.4826 35 39.0292 35C38.9226 35 38.8692 34.92 38.8692 34.76C38.8692 34.6 38.9226 34.52 39.0292 34.52C40.0159 34.52 40.7359 34.4267 41.1892 34.24C41.6426 34.0533 41.8692 33.7333 41.8692 33.28C41.8692 32.9067 41.6959 32.3333 41.3492 31.56L36.7492 21.76H29.1892L25.7492 29.92C25.3759 30.8267 25.1892 31.5733 25.1892 32.16C25.1892 33.7333 26.4959 34.52 29.1092 34.52C29.2426 34.52 29.3092 34.6 29.3092 34.76C29.3092 34.92 29.2426 35 29.1092 35C28.6292 35 27.9359 34.9733 27.0292 34.92C26.0159 34.8667 25.1359 34.84 24.3892 34.84C23.6959 34.84 22.8959 34.8667 21.9892 34.92C21.1892 34.9733 20.5226 35 19.9892 35C19.8559 35 19.7892 34.92 19.7892 34.76C19.7892 34.6 19.8559 34.52 19.9892 34.52C20.7359 34.52 21.3626 34.3867 21.8692 34.12C22.4026 33.8267 22.8959 33.3333 23.3492 32.64C23.8292 31.92 24.3492 30.8933 24.9092 29.56L33.3492 9.64C33.4026 9.56 33.4959 9.52 33.6292 9.52C33.7626 9.52 33.8426 9.56 33.8692 9.64L43.3092 29.52C44.2159 31.4933 44.9892 32.8267 45.6292 33.52C46.2692 34.1867 47.0292 34.52 47.9092 34.52ZM29.5492 20.92H36.3492L32.7492 13.32L29.5492 20.92ZM73.6752 34.52C73.7552 34.52 73.7952 34.6 73.7952 34.76C73.7952 34.92 73.7552 35 73.6752 35H69.1952C68.9818 35 68.5952 35 68.0352 35C67.5018 35.0267 66.7418 34.36 65.7552 33C64.7685 31.6133 63.8218 30.3467 62.9152 29.2L56.7952 21.48L55.4752 22.76V31.76C55.4752 32.56 55.5552 33.16 55.7152 33.56C55.8752 33.9333 56.1818 34.1867 56.6352 34.32C57.1152 34.4533 57.8618 34.52 58.8752 34.52C58.9552 34.52 58.9952 34.6 58.9952 34.76C58.9952 34.92 58.9552 35 58.8752 35C58.0752 35 57.4352 34.9867 56.9552 34.96L54.1552 34.92L51.4352 34.96C50.9552 34.9867 50.2885 35 49.4352 35C49.3818 35 49.3552 34.92 49.3552 34.76C49.3552 34.6 49.3818 34.52 49.4352 34.52C50.4485 34.52 51.1818 34.4533 51.6352 34.32C52.1152 34.1867 52.4352 33.9333 52.5952 33.56C52.7818 33.16 52.8752 32.56 52.8752 31.76V13.24C52.8752 12.44 52.7952 11.8533 52.6352 11.48C52.4752 11.1067 52.1552 10.8533 51.6752 10.72C51.2218 10.56 50.4885 10.48 49.4752 10.48C49.4218 10.48 49.3952 10.4 49.3952 10.24C49.3952 10.08 49.4218 10 49.4752 10L51.4752 10.04C52.5952 10.0933 53.4885 10.12 54.1552 10.12C54.9285 10.12 55.8752 10.0933 56.9952 10.04L58.8752 10C58.9552 10 58.9952 10.08 58.9952 10.24C58.9952 10.4 58.9552 10.48 58.8752 10.48C57.8885 10.48 57.1552 10.56 56.6752 10.72C56.2218 10.88 55.9018 11.16 55.7152 11.56C55.5552 11.9333 55.4752 12.52 55.4752 13.32V21.76L64.0352 13.24C64.9152 12.36 65.3552 11.7067 65.3552 11.28C65.3552 10.7467 64.5685 10.48 62.9952 10.48C62.9418 10.48 62.9152 10.4 62.9152 10.24C62.9152 10.08 62.9418 10 62.9952 10L64.7152 10.04C65.7818 10.0933 66.7552 10.12 67.6352 10.12C68.5152 10.12 69.4352 10.0933 70.3952 10.04L71.8752 10C71.9552 10 71.9952 10.08 71.9952 10.24C71.9952 10.4 71.9552 10.48 71.8752 10.48C70.7818 10.48 69.6218 10.72 68.3952 11.2C67.1685 11.68 66.0218 12.44 64.9552 13.48L58.6352 19.68L64.3952 27.04C66.3418 29.5733 67.8218 31.36 68.8352 32.4C69.8752 33.44 70.6752 34.0533 71.2352 34.24C71.7952 34.4267 72.6085 34.52 73.6752 34.52ZM79.8508 14.68C79.8508 15.72 80.1041 16.6267 80.6108 17.4C81.1174 18.1733 81.7308 18.8267 82.4508 19.36C83.1708 19.8667 84.1841 20.52 85.4908 21.32C86.8774 22.1467 87.9574 22.84 88.7308 23.4C89.5041 23.96 90.1574 24.68 90.6908 25.56C91.2508 26.4133 91.5308 27.44 91.5308 28.64C91.5308 29.92 91.2108 31.08 90.5708 32.12C89.9308 33.16 88.9841 33.9867 87.7308 34.6C86.5041 35.1867 85.0241 35.48 83.2908 35.48C81.2374 35.48 79.3574 35.0133 77.6508 34.08C77.5174 34 77.4241 33.9067 77.3708 33.8C77.3441 33.6933 77.3174 33.5333 77.2908 33.32L76.7708 27.88C76.7441 27.7733 76.7974 27.7067 76.9308 27.68C77.0908 27.6533 77.1841 27.6933 77.2108 27.8C77.6374 29.72 78.4241 31.3733 79.5708 32.76C80.7441 34.1467 82.2908 34.84 84.2108 34.84C85.5441 34.84 86.6641 34.48 87.5708 33.76C88.5041 33.0133 88.9708 31.84 88.9708 30.24C88.9708 29.04 88.7041 28 88.1708 27.12C87.6374 26.24 86.9841 25.52 86.2108 24.96C85.4641 24.3733 84.4374 23.6933 83.1308 22.92C81.8508 22.1467 80.8374 21.48 80.0908 20.92C79.3708 20.36 78.7574 19.6533 78.2508 18.8C77.7441 17.9467 77.4908 16.9467 77.4908 15.8C77.4908 14.4667 77.8374 13.3333 78.5308 12.4C79.2508 11.44 80.1708 10.7333 81.2908 10.28C82.4374 9.8 83.6508 9.56 84.9308 9.56C86.5041 9.56 88.0641 9.88 89.6108 10.52C90.0108 10.6533 90.2108 10.88 90.2108 11.2L90.4908 15.8C90.4908 15.9067 90.4241 15.96 90.2908 15.96C90.1574 15.96 90.0774 15.9067 90.0508 15.8C89.8374 14.4133 89.2641 13.1333 88.3308 11.96C87.3974 10.76 86.0508 10.16 84.2908 10.16C82.7974 10.16 81.6774 10.6 80.9308 11.48C80.2108 12.3333 79.8508 13.4 79.8508 14.68ZM121.659 34.52C121.766 34.52 121.819 34.6 121.819 34.76C121.819 34.92 121.766 35 121.659 35C121.153 35 120.366 34.9733 119.299 34.92C118.233 34.8667 117.459 34.84 116.979 34.84C116.393 34.84 115.646 34.8667 114.739 34.92C113.886 34.9733 113.233 35 112.779 35C112.673 35 112.619 34.92 112.619 34.76C112.619 34.6 112.673 34.52 112.779 34.52C113.766 34.52 114.486 34.4267 114.939 34.24C115.393 34.0533 115.619 33.7333 115.619 33.28C115.619 32.9067 115.446 32.3333 115.099 31.56L110.499 21.76H102.939L99.4992 29.92C99.1259 30.8267 98.9392 31.5733 98.9392 32.16C98.9392 33.7333 100.246 34.52 102.859 34.52C102.993 34.52 103.059 34.6 103.059 34.76C103.059 34.92 102.993 35 102.859 35C102.379 35 101.686 34.9733 100.779 34.92C99.7659 34.8667 98.8859 34.84 98.1392 34.84C97.4459 34.84 96.6459 34.8667 95.7392 34.92C94.9392 34.9733 94.2726 35 93.7392 35C93.6059 35 93.5392 34.92 93.5392 34.76C93.5392 34.6 93.6059 34.52 93.7392 34.52C94.4859 34.52 95.1126 34.3867 95.6192 34.12C96.1526 33.8267 96.6459 33.3333 97.0992 32.64C97.5792 31.92 98.0992 30.8933 98.6592 29.56L107.099 9.64C107.153 9.56 107.246 9.52 107.379 9.52C107.513 9.52 107.593 9.56 107.619 9.64L117.059 29.52C117.966 31.4933 118.739 32.8267 119.379 33.52C120.019 34.1867 120.779 34.52 121.659 34.52ZM103.299 20.92H110.099L106.499 13.32L103.299 20.92ZM149.105 34.52C149.158 34.52 149.185 34.6 149.185 34.76C149.185 34.92 149.158 35 149.105 35H143.945C143.278 35 142.025 33.8667 140.185 31.6C138.372 29.3067 136.158 26.12 133.545 22.04C132.905 22.2267 132.185 22.32 131.385 22.32C130.878 22.32 130.278 22.2933 129.585 22.24V31.76C129.585 32.5867 129.665 33.1867 129.825 33.56C129.985 33.9333 130.292 34.1867 130.745 34.32C131.225 34.4533 131.972 34.52 132.985 34.52C133.065 34.52 133.105 34.6 133.105 34.76C133.105 34.92 133.065 35 132.985 35C132.158 35 131.505 34.9867 131.025 34.96L128.265 34.92L125.545 34.96C125.065 34.9867 124.385 35 123.505 35C123.452 35 123.425 34.92 123.425 34.76C123.425 34.6 123.452 34.52 123.505 34.52C124.518 34.52 125.265 34.4533 125.745 34.32C126.225 34.16 126.558 33.8933 126.745 33.52C126.932 33.1467 127.025 32.56 127.025 31.76V13.24C127.025 12.44 126.932 11.8533 126.745 11.48C126.585 11.1067 126.265 10.8533 125.785 10.72C125.332 10.56 124.598 10.48 123.585 10.48C123.505 10.48 123.465 10.4 123.465 10.24C123.465 10.08 123.505 10 123.585 10L125.545 10.04C126.665 10.0933 127.572 10.12 128.265 10.12C128.745 10.12 129.198 10.1067 129.625 10.08C130.052 10.0533 130.425 10.0267 130.745 10C131.598 9.92 132.372 9.88 133.065 9.88C135.225 9.88 136.892 10.32 138.065 11.2C139.238 12.08 139.825 13.3067 139.825 14.88C139.825 16.16 139.452 17.3733 138.705 18.52C137.958 19.64 136.972 20.5333 135.745 21.2C138.012 24.5867 139.918 27.24 141.465 29.16C143.012 31.0533 144.385 32.4267 145.585 33.28C146.785 34.1067 147.958 34.52 149.105 34.52ZM129.585 21.24C130.252 21.3467 131.038 21.4 131.945 21.4C133.785 21.4 135.105 21.0133 135.905 20.24C136.705 19.44 137.105 18.12 137.105 16.28C137.105 12.4133 135.478 10.48 132.225 10.48C131.505 10.48 130.958 10.5467 130.585 10.68C130.238 10.7867 129.985 11.04 129.825 11.44C129.665 11.8133 129.585 12.44 129.585 13.32V21.24Z"
        fill="black" />
</svg>